<svg width="160" height="160" viewBox="0 0 154 94" fill="none" xmlns="http://www.w3.org/2000/svg"><circle cx="30" cy="39" r="6" fill="#E4E4E4"></circle><path d="M33 37.307 74.633 6.738a4 4 0 0 1 4.734 0L121 37.308v43.691a8 8 0 0 1-8 8H41a8 8 0 0 1-8-8V37.307Z" fill="#BABABA"></path><path opacity="0.05" fill-rule="evenodd" clip-rule="evenodd" d="m33 36.227 29.768 21.371.918-.87a8 8 0 0 1 5.5-2.189h15.629a8 8 0 0 1 5.499 2.19l.918.87L121 36.226v23.699H33V36.227Z" fill="#000"></path><path d="m33 37.308 33 25.846h22l33-25.846V81a8 8 0 0 1-8 8H41a8 8 0 0 1-8-8V37.308Z" fill="#D9D9D9"></path><mask id="empty_svg__a" maskUnits="userSpaceOnUse" x="33" y="37" width="88" height="53" style="mask-type: alpha;"><path d="m33 37.308 33 19.385h22l33-19.385V81a8 8 0 0 1-8 8H41a8 8 0 0 1-8-8V37.308Z" fill="#E4E4E4"></path></mask><g mask="url(#empty_svg__a)"><path d="M63.668 58.975a8 8 0 0 1 5.596-2.284h15.472a8 8 0 0 1 5.596 2.284L121 88.999H33l30.668-30.024Z" fill="#E8E8E8"></path><path opacity="0.1" d="M62.7 59.925 34.65 87.386l-1.066-3.264L62.7 59.925ZM91.3 59.925l28.05 27.461 1.066-3.264L91.3 59.925Z" fill="#000"></path></g><ellipse cx="12.242" cy="50.243" rx="4" ry="2" transform="rotate(45 12.242 50.243)" fill="#E6E6E6"></ellipse><ellipse cx="122.655" cy="29.167" rx="4" ry="2" transform="rotate(-42.155 122.655 29.167)" fill="#D9D9D9"></ellipse><circle cx="133" cy="65" r="5" fill="#E6E6E6"></circle><path fill-rule="evenodd" clip-rule="evenodd" d="M15.31 22.616c1.89 2.396 3.74 3.86 4.414 3.393.674-.467-.044-2.714-1.622-5.326 2.396-1.89 3.86-3.74 3.393-4.414-.467-.674-2.714.044-5.326 1.622-1.89-2.396-3.74-3.86-4.414-3.393-.674.467.044 2.714 1.622 5.326-2.396 1.89-3.86 3.74-3.393 4.414.467.674 2.714-.044 5.326-1.622Z" fill="#D7D7D7"></path><path fill-rule="evenodd" clip-rule="evenodd" d="M139.486 31.82c-.776 1.56-1.08 2.874-.674 3.108.406.235 1.391-.685 2.355-2.138 1.561.776 2.875 1.08 3.109.674.234-.406-.686-1.391-2.139-2.355.777-1.561 1.081-2.875.675-3.109-.406-.234-1.391.686-2.355 2.139-1.562-.777-2.875-1.08-3.109-.675-.235.406.685 1.391 2.138 2.355Z" fill="#DADADA"></path><circle cx="136.848" cy="56.5" r="2.5" fill="#DBDBDB"></circle></svg>